<svg width="158" height="39" fill="none" xmlns="http://www.w3.org/2000/svg"><path d="M16.34 25.104h-.002l-.097.023-.01.002-6.812 1.6-.105.025H9.31a.532.532 0 00-.318.324.555.555 0 00.054.478l.14.15 2.138 2.269 2.938 3.118c0 .001 0 .002.002.002l.06.064a.523.523 0 00.454.124.52.52 0 00.369-.296l.053-.213 1.161-4.732.547-2.229v-.003l.018-.074.001-.005a.564.564 0 00-.142-.466.528.528 0 00-.446-.163v.002zM9.97 27.45zm.026-.257zm5.895-1.418zm.333.387zM29.78 9.86a24.68 24.68 0 00-4.749-7.049l-.074-.076a.147.147 0 00-.02-.02l-.039-.041a2.052 2.052 0 00-1.031-.532 2.013 2.013 0 00-1.139.116l-.018.007-.021.01-.018.008a1.57 1.57 0 00-.136.067l-.557.436c-.024.026-.047.054-.07.082l-.5.393-.001-.027-7.362 5.78-.017.014-.023.019L1.167 19.13l-.004.004-.262.205-.003.002c-.05.035-.098.073-.144.113l-.015.013a2.104 2.104 0 00-.513.66 2.22 2.22 0 00-.124 1.637v.004l.002.004v.008a11.172 11.172 0 00.71 2.055c.288.631.635 1.233 1.036 1.795v.002l.006.01h.001c.105.192.237.366.393.515l.001.002a2.01 2.01 0 002.108.436l.138-.032 2.93-.689.03-.007.019-.005 9.97-2.341 2.74-.644.012-.003 9.053-2.126.04-.01.859-.202.005-.001c.101-.016.201-.04.3-.07h.002a1.78 1.78 0 00.156-.058l.019-.008.022-.009c.023-.01.047-.02.071-.032.334-.16.621-.41.83-.724a2.175 2.175 0 00.365-1.197v-.005c0-.123-.009-.246-.029-.368l.002-.005-.002-.007A25.074 25.074 0 0029.797 9.9l-.009-.02-.009-.02h.001zm-2.376 1.448a6.431 6.431 0 01.25 4.032l-.002.006-.01.038-.008.035-.011.006.005.01-.016.034a.413.413 0 01-.037.063.187.187 0 01-.02.029c-.006.01-.016.018-.025.027l-.024.026-.03.022c-.01.007-.018.015-.027.023-.01.007-.023.012-.035.018l-.029.016-.04.015c-.01.003-.018.007-.028.009a.438.438 0 01-.052.01l-.019.003a.44.44 0 01-.386-.162 24.931 24.931 0 01-3.104-7.048l-.002-.007c0-.002 0-.004-.002-.004a.036.036 0 00-.003-.01l-.016-.063V8.43a.432.432 0 01.136-.389.404.404 0 01.345-.095c.004 0 .01.003.014.004a.36.36 0 01.03.008l.006.011.01-.005.07.034.008.004a6.197 6.197 0 013.052 3.306z" fill="#1E8BE8"/><path d="M53.547 12.656v9.832c0 .685.156 1.186.468 1.504.335.294.886.44 1.653.44h2.336v4.33h-3.163c-4.241 0-6.362-2.104-6.362-6.31v-9.796h-2.372V8.438h2.372V3.412h5.068v5.026h4.457v4.218h-4.457zm26.588 5.504c0 .733-.048 1.393-.144 1.98H65.434c.12 1.468.623 2.617 1.51 3.449.886.831 1.976 1.247 3.27 1.247 1.87 0 3.2-.82 3.99-2.458h5.428c-.576 1.957-1.678 3.57-3.307 4.843-1.63 1.247-3.63 1.87-6.003 1.87-1.917 0-3.642-.428-5.176-1.284-1.51-.88-2.696-2.115-3.558-3.705-.839-1.59-1.258-3.424-1.258-5.503 0-2.103.42-3.95 1.258-5.539.838-1.59 2.013-2.813 3.522-3.669 1.51-.856 3.247-1.284 5.212-1.284 1.893 0 3.582.416 5.068 1.248a8.52 8.52 0 013.487 3.558c.839 1.517 1.258 3.265 1.258 5.246zm-5.212-1.468c-.024-1.32-.491-2.373-1.402-3.155-.91-.807-2.025-1.21-3.343-1.21-1.246 0-2.3.39-3.163 1.173-.838.758-1.354 1.822-1.545 3.192h9.453zM88.84 1.614v27.147h-5.032V1.614h5.032zm10.004 0v27.147h-5.032V1.614h5.032zm7.524 4.402c-.887 0-1.63-.28-2.229-.843-.575-.587-.863-1.309-.863-2.165 0-.856.288-1.565.863-2.128.599-.587 1.342-.88 2.229-.88.886 0 1.617.293 2.192.88.599.563.899 1.272.899 2.128 0 .856-.3 1.578-.899 2.165-.575.562-1.306.843-2.192.843zm2.48 2.422V28.76h-5.032V8.438h5.032zm16.006-.294c2.373 0 4.29.77 5.751 2.311 1.462 1.517 2.193 3.644 2.193 6.384V28.76h-5.032V17.536c0-1.615-.396-2.85-1.186-3.706-.791-.88-1.87-1.32-3.235-1.32-1.39 0-2.492.44-3.307 1.32-.791.856-1.186 2.091-1.186 3.706V28.76h-5.032V8.438h5.032v2.53a6.843 6.843 0 012.552-2.053c1.054-.514 2.204-.77 3.45-.77zm20.529-.037c1.486 0 2.792.306 3.918.918 1.126.587 2.013 1.357 2.66 2.31V8.439h5.068v20.47c0 1.883-.372 3.559-1.114 5.026-.743 1.492-1.858 2.666-3.343 3.522-1.486.88-3.283 1.32-5.392 1.32-2.827 0-5.152-.672-6.973-2.017-1.797-1.345-2.816-3.18-3.055-5.503h4.996c.264.93.827 1.663 1.689 2.201.887.563 1.953.844 3.199.844 1.462 0 2.648-.453 3.559-1.358.91-.88 1.366-2.225 1.366-4.035v-3.155c-.647.954-1.546 1.749-2.696 2.385-1.126.635-2.42.953-3.882.953-1.677 0-3.211-.44-4.601-1.32-1.39-.88-2.492-2.116-3.307-3.705-.79-1.615-1.186-3.461-1.186-5.54 0-2.054.396-3.876 1.186-5.466.815-1.59 1.905-2.813 3.271-3.669 1.39-.856 2.936-1.284 4.637-1.284zm6.578 10.492c0-1.247-.24-2.31-.719-3.191-.479-.905-1.126-1.59-1.941-2.054a5.012 5.012 0 00-2.624-.734c-.935 0-1.797.232-2.588.697-.791.464-1.438 1.15-1.941 2.054-.479.88-.719 1.932-.719 3.155 0 1.223.24 2.299.719 3.228.503.905 1.15 1.602 1.941 2.091a4.94 4.94 0 002.588.734 5.21 5.21 0 002.624-.697c.815-.489 1.462-1.174 1.941-2.054.479-.905.719-1.981.719-3.229z" fill="#fff"/></svg>