<svg width="81" height="40" fill="none" xmlns="http://www.w3.org/2000/svg"><path d="M8.326 22.723h-.001l-.05.01-.004.002-3.472.81-.053.013h-.002a.27.27 0 00-.162.164.28.28 0 00.027.243l.072.076 1.089 1.15 1.497 1.58.001.001.031.033.001.001a.266.266 0 00.418-.088l.027-.109.592-2.398.278-1.13s.001 0 0 0l.01-.038v-.003a.285.285 0 00-.072-.236.27.27 0 00-.228-.082zM5.08 23.91zm.014-.13zm3.003-.72zm.17.197zm6.908-8.261a12.503 12.503 0 00-2.42-3.571l-.038-.04a.089.089 0 00-.01-.01l-.02-.02-.003-.003a1.032 1.032 0 00-1.103-.208l-.009.004-.01.005-.01.004a1.029 1.029 0 00-.07.034l-.283.22-.035.042-.255.2-.001-.014-3.751 2.93-.009.006-.012.01-6.541 5.11-.003.002-.133.104H.458a.885.885 0 00-.074.058l-.008.006a1.067 1.067 0 00-.373.749 1.12 1.12 0 00.05.416v.008a5.642 5.642 0 00.89 1.951l.003.006c.054.097.121.185.2.261h.001a1.026 1.026 0 001.074.222l.07-.016 1.493-.35.015-.003.01-.002 5.08-1.187 1.397-.327h.006l4.613-1.078.02-.005.438-.103h.002a1 1 0 00.153-.036h.002a.91.91 0 00.079-.029l.01-.004.01-.005.037-.016c.17-.081.316-.208.423-.367a1.099 1.099 0 00.186-.606v-.003c0-.062-.005-.125-.015-.186l.001-.003-.001-.004c-.12-1.43-.48-2.828-1.067-4.13l-.004-.01-.005-.011zm-1.211.735a3.243 3.243 0 01.128 2.043l-.002.003-.005.02-.004.017-.006.003.003.006-.008.017-.008.015-.01.017-.01.014-.014.014-.012.013-.015.011-.014.012-.018.009-.015.008-.02.007-.014.005a.237.237 0 01-.027.005l-.01.002a.224.224 0 01-.196-.083 12.6 12.6 0 01-1.582-3.572l-.001-.003-.001-.002-.001-.005c-.003-.01-.007-.021-.009-.032v-.003a.232.232 0 01.02-.13.216.216 0 01.12-.108.204.204 0 01.105-.007l.008.002.014.004.004.006.005-.003a.927.927 0 01.036.017l.004.002a3.148 3.148 0 011.555 1.676z" fill="#1E8BE8"/><path d="M27.285 16.414v4.983c0 .347.08.6.238.762.171.149.452.223.843.223h1.19v2.194h-1.611c-2.162 0-3.242-1.066-3.242-3.198v-4.964h-1.21v-2.138h1.21V11.73h2.582v2.547h2.271v2.138h-2.27zm13.548 2.789c0 .372-.024.706-.073 1.004h-7.418c.061.744.317 1.326.77 1.747.451.422 1.007.633 1.666.633.952 0 1.63-.416 2.033-1.246h2.766a4.74 4.74 0 01-1.685 2.454c-.83.632-1.85.948-3.06.948-.976 0-1.855-.217-2.637-.65a4.756 4.756 0 01-1.813-1.878c-.427-.806-.64-1.735-.64-2.789 0-1.066.213-2.002.64-2.807a4.51 4.51 0 011.795-1.86c.77-.433 1.655-.65 2.656-.65.965 0 1.825.21 2.582.632a4.328 4.328 0 011.777 1.803c.427.769.64 1.655.64 2.659zm-2.656-.744c-.012-.67-.25-1.202-.714-1.599-.464-.409-1.032-.613-1.703-.613-.635 0-1.173.198-1.612.595-.428.384-.69.923-.788 1.617h4.817zm7.092-7.641v13.758h-2.564V10.818h2.564zm5.097 0v13.758h-2.564V10.818h2.564zm3.834 2.231c-.452 0-.83-.143-1.136-.428a1.503 1.503 0 01-.44-1.097c0-.433.147-.793.44-1.078A1.563 1.563 0 0154.2 10c.452 0 .824.149 1.117.446.306.285.458.645.458 1.079 0 .433-.152.799-.458 1.096-.293.285-.665.428-1.117.428zm1.264 1.227v10.3H52.9v-10.3h2.564zm8.156-.149c1.209 0 2.186.39 2.93 1.172.745.768 1.118 1.846 1.118 3.235v6.042h-2.565v-5.69c0-.817-.201-1.443-.604-1.877-.403-.446-.952-.67-1.648-.67-.709 0-1.27.224-1.685.67-.403.434-.605 1.06-.605 1.878v5.689h-2.564v-10.3h2.564v1.283a3.485 3.485 0 011.3-1.041 3.978 3.978 0 011.759-.39zm10.46-.018c.758 0 1.423.155 1.997.464.574.298 1.026.688 1.355 1.172v-1.469h2.583V24.65c0 .955-.19 1.804-.568 2.547a4.181 4.181 0 01-1.704 1.785c-.756.446-1.672.67-2.747.67-1.44 0-2.625-.341-3.553-1.023-.916-.682-1.435-1.611-1.557-2.789h2.546c.134.471.421.843.86 1.116.453.285.996.427 1.63.427.746 0 1.35-.23 1.814-.688.464-.446.696-1.128.696-2.045v-1.599c-.33.484-.787.887-1.374 1.209-.573.322-1.233.483-1.978.483a4.31 4.31 0 01-2.344-.67c-.708-.445-1.27-1.071-1.685-1.877-.403-.818-.604-1.754-.604-2.807 0-1.041.201-1.965.604-2.77.415-.806.97-1.426 1.667-1.86a4.434 4.434 0 012.362-.65zm3.352 5.317c0-.632-.122-1.171-.366-1.617a2.527 2.527 0 00-.99-1.042 2.564 2.564 0 00-1.336-.372c-.476 0-.916.118-1.319.354-.403.235-.733.582-.989 1.04-.244.447-.366.98-.366 1.6 0 .62.122 1.165.366 1.636.257.458.586.812.99 1.06.414.247.854.371 1.318.371a2.66 2.66 0 001.337-.353c.415-.248.745-.595.989-1.041.244-.459.366-1.004.366-1.636z" fill="#2C3944"/></svg>