<svg width="20" height="20" fill="none" xmlns="http://www.w3.org/2000/svg"><path d="M10 0C4.478 0 0 4.478 0 10s4.478 10 10 10 10-4.478 10-10S15.522 0 10 0zm4.806 7.538c.007.105.007.214.007.321 0 3.277-2.496 7.052-7.056 7.052a7.031 7.031 0 01-3.808-1.112c.2.022.393.031.598.031 1.16 0 2.228-.393 3.078-1.058a2.48 2.48 0 01-2.317-1.718 2.71 2.71 0 001.118-.045 2.477 2.477 0 01-1.984-2.433v-.031c.328.185.714.299 1.118.314a2.48 2.48 0 01-.768-3.312 7.038 7.038 0 005.112 2.591c-.35-1.685.909-3.049 2.422-3.049.714 0 1.357.3 1.81.782a4.898 4.898 0 001.574-.596 2.467 2.467 0 01-1.09 1.363c.5-.053.983-.192 1.43-.386a5.194 5.194 0 01-1.244 1.286z" fill="#7D8D9B"/></svg>